<svg width="21" height="21" viewBox="0 0 21 21" fill="none" xmlns="http://www.w3.org/2000/svg">
<g clip-path="url(#clip0_10_859)">
<path d="M12.2302 18.262C12.2619 18.3409 12.3169 18.4082 12.3879 18.455C12.459 18.5017 12.5426 18.5255 12.6276 18.5234C12.7126 18.5212 12.7948 18.4931 12.8634 18.4428C12.9319 18.3925 12.9834 18.3224 13.011 18.242L18.4277 2.40867C18.4544 2.33483 18.4595 2.25492 18.4424 2.1783C18.4253 2.10167 18.3867 2.0315 18.3312 1.97598C18.2757 1.92047 18.2055 1.88191 18.1289 1.86483C18.0523 1.84774 17.9724 1.85283 17.8985 1.8795L2.0652 7.29617C1.98478 7.32375 1.91472 7.37527 1.86442 7.44381C1.81413 7.51235 1.786 7.59464 1.78383 7.67963C1.78165 7.76462 1.80552 7.84824 1.85224 7.91927C1.89896 7.9903 1.96629 8.04534 2.0452 8.077L8.65353 10.727C8.86243 10.8106 9.05224 10.9357 9.2115 11.0947C9.37076 11.2537 9.49618 11.4432 9.5802 11.652L12.2302 18.262Z" stroke="#4A5565" stroke-width="1.66667" stroke-linecap="round" stroke-linejoin="round"/>
<path d="M18.3286 1.97949L9.21191 11.0953" stroke="#4A5565" stroke-width="1.66667" stroke-linecap="round" stroke-linejoin="round"/>
</g>
<defs>
<clipPath id="clip0_10_859">
<rect width="20" height="20" fill="white" transform="translate(0.116699 0.190308)"/>
</clipPath>
</defs>
</svg>
